<svg width="16px" height="14px" viewBox="0 0 16 14" version="1.1" xmlns="http://www.w3.org/2000/svg" xmlns:xlink="http://www.w3.org/1999/xlink">
    <g id="CSS-Peeper-2.0" stroke="none" stroke-width="1" fill-rule="evenodd">
        <g id="csspeeper-icons" transform="translate(-269.000000, -192.000000)">
            <path d="M284,195 L281.5,195 L279.8,192.4 C279.6,192.2 279.3,192 279,192 L275,192 C274.7,192 274.4,192.2 274.2,192.4 L272.5,195 L270,195 C269.4,195 269,195.4 269,196 L269,205 C269,205.6 269.4,206 270,206 L284,206 C284.6,206 285,205.6 285,205 L285,196 C285,195.4 284.6,195 284,195 Z M277,203 C275.3,203 274,201.7 274,200 C274,198.3 275.3,197 277,197 C278.7,197 280,198.3 280,200 C280,201.7 278.7,203 277,203 Z" id="assets-ico"></path>
        </g>
    </g>
</svg>