<svg width="15px" height="15px" viewBox="0 0 15 15" version="1.1" xmlns="http://www.w3.org/2000/svg" xmlns:xlink="http://www.w3.org/1999/xlink">
    <g id="CSS-Peeper-2.0" stroke="none" stroke-width="1" fill-rule="evenodd">
        <g id="csspeeper-icons" transform="translate(-425.000000, -192.000000)" fill-rule="nonzero">
            <path d="M439.0625,192 C439.625,192 440,192.375 440,192.9375 L440,194.8125 C440,195.375 439.625,195.75 439.0625,195.75 L425.9375,195.75 C425.375,195.75 425,195.375 425,194.8125 L425,192.9375 C425,192.375 425.375,192 425.9375,192 L439.0625,192 Z M427.8125,197.625 C428.375,197.625 428.75,198 428.75,198.5625 L428.75,206.0625 C428.75,206.625 428.375,207 427.8125,207 L425.9375,207 C425.375,207 425,206.625 425,206.0625 L425,198.5625 C425,198 425.375,197.625 425.9375,197.625 L427.8125,197.625 Z M439.0625,197.625 C439.625,197.625 440,198 440,198.5625 L440,206.0625 C440,206.625 439.625,207 439.0625,207 L431.5625,207 C431,207 430.625,206.625 430.625,206.0625 L430.625,198.5625 C430.625,198 431,197.625 431.5625,197.625 L439.0625,197.625 Z" id="general-ico"></path>
        </g>
    </g>
</svg>